<?xml version="1.0" standalone="no"?><!DOCTYPE svg PUBLIC "-//W3C//DTD SVG 1.1//EN" "http://www.w3.org/Graphics/SVG/1.1/DTD/svg11.dtd"><svg t="1669482695652" class="icon" viewBox="0 0 1024 1024" version="1.1" xmlns="http://www.w3.org/2000/svg" p-id="901" xmlns:xlink="http://www.w3.org/1999/xlink" width="200" height="200"><path d="M896 544v256a96 96 0 0 1-96 96h-256v96h-64v-96H224a96 96 0 0 1-96-96v-256H32v-64h96V224a96 96 0 0 1 96-96h256V32h64v96h256a96 96 0 0 1 96 96v256h96v64h-96z m-64 0h-96v-64h96V224a32 32 0 0 0-32-32h-256v96h-64V192H224a32 32 0 0 0-32 32v256h96v64H192v256a32 32 0 0 0 32 32h256v-96h64v96h256a32 32 0 0 0 32-32v-256z" p-id="902" fill="#1296db"></path></svg>